<svg id="Layer_2" data-name="Layer 2" xmlns="http://www.w3.org/2000/svg" viewBox="0 0 500 256.65"><defs><style>.cls-1{fill:#b6d9d0;}.cls-2{fill:#3e516d;}.cls-3{fill:#a16044;}.cls-4{fill:#fdf4e2;}.cls-5{fill:#bb5232;}.cls-6{fill:#fff;}</style></defs><path class="cls-1" d="M165.77,255.39s124.7.41,153.19.41c-8.67-14-16.1-118.92-16.51-121s0-7,1.24-9.08,7.84-5,10.32-7.44,2.89-7.43,0-12.8-4.54-4.95-8.67-5.36c-3.79-.38-7.85,3.3-10.33,4.12s-4.95-.82-9.91-5-10.32-9.5-23.53-12.8c-13.84-3.46-32.63,0-34.69-.41s-2.89-7.85-6.61-10.74-8.67-1.65-12.38,0-7.85,8.26-4.55,14.87c2.07,4.12,3.72,7.84,3.72,9.91s-5.37,7-8.67,12c-16.93,24-33.86,89.61-33.45,119.34C165.22,251.67,165.77,255.39,165.77,255.39Z"/><path class="cls-2" d="M445.77,255.82c-.09-2.09-.68-23.29,9.3-67.33C465.6,142,471.59,108.8,475.51,98.68c2.5-6.46,11.77,2.27,19.2-11.15C499.46,79,496,72.05,490.38,69s-14.87,3.1-18,0-15.14-23.1-29.11-32.21c-23.74-15.48-38.81-7.84-40.67-12.18s2.27-12-6.4-16.93c-7-4-10.53-3.72-14.87-.62s-7.43,8.67-7.43,12.39,2.48,13,.62,14.86-40.05,23.13-71,80.73c-18,31.75-10.6,102.59,10,140.83Z"/><path class="cls-3" d="M25.16,98.68C29.09,108.8,35.07,142,45.6,188.49c10,44,9.39,65.24,9.3,67.33H166.37C159.21,196.65,181.68,149,197.15,115c-31-57.6-69.17-78.87-71-80.73s.62-11.15.62-14.86S123.65,10.11,119.31,7s-7.87-3.38-14.86.62c-8.68,5-4.55,12.59-6.4,16.93s-16.93-3.3-40.68,12.18c-14,9.11-26,29.11-29.11,32.21s-12.39-3.1-18,0S1.22,79,6,87.53C13.39,101,22.66,92.22,25.16,98.68Z"/><path class="cls-4" d="M247.53,17.13s-4.55-7-9.91-6.61-8.68,3.72-7.44,8.67,13.22,22.3,16.11,23.13,6.6-5,8.67-7.85,7.84-9.08,9.5-14a7.07,7.07,0,0,0-8.26-9.08A16.45,16.45,0,0,0,247.53,17.13Z"/><path class="cls-4" d="M82.15,81.34s-6.82,6.19-5,26,7.44,27.87,16.11,28.49,17.71.32,29.73-9.29c9.29-7.43,11.79-14,6.81-22.3-7.43-12.38-19.9-23.71-28.49-27.25C94.33,74.11,87.31,74.52,82.15,81.34Z"/><path d="M87.72,86.91s-3.51,3.31,0,8.26c2.52,3.55,5.78,5.78,9.5,3.72,4.66-2.59,4.13-7.64,2.89-11.36S95.16,81.54,87.72,86.91Z"/><path class="cls-5" d="M117.87,73.29S115,77,116.63,78.65s5.37,4.55,8.26,1.65c3.3-3.3,4.13-7.43,2.47-8.67S122.82,68.33,117.87,73.29Z"/><path class="cls-5" d="M58,104.67s-2.48,3.71-.82,5.78,7.43,1.65,9.08,1.24a4.65,4.65,0,0,0,3.3-5c-.41-2.48-2.06-3.71-5-3.71A20.16,20.16,0,0,0,58,104.67Z"/><path class="cls-4" d="M25.37,77S21,73.34,17.11,73.7c-4.54.41-6.61,1.65-7.43,3.71s-1.24,7,1.24,9.91c2.68,3.14,7,6.2,11.56,4.13s3.82-7,4.13-9.49A6.08,6.08,0,0,0,25.37,77Z"/><path class="cls-4" d="M103.41,20s.42-6.61,4.13-8.67,5.78-2.07,7.85-1.24,4.54,4.13,5,6.19a25,25,0,0,1,.42,5.37c0,1.65-.42,7-2.07,7.43a11.15,11.15,0,0,1-8.26-.82C108,27,103.41,25,103.41,20Z"/><path d="M56.75,86.09c-3.37,2.59-2.47,7-1.65,8.67a5.05,5.05,0,0,0,6.19,2.89c3.72-.83,5.79-1.65,5.79-6.2S62.12,82,56.75,86.09Z"/><ellipse class="cls-6" cx="62.6" cy="88.77" rx="1.85" ry="2.06"/><path d="M104.24,58.83c-3.37,2.59-2.48,7-1.65,8.67s2.48,3.72,6.19,2.89,5.78-1.65,5.78-6.19S109.61,54.7,104.24,58.83Z"/><ellipse class="cls-6" cx="109.24" cy="61.22" rx="1.85" ry="2.06"/><path class="cls-4" d="M418.53,81.34s6.81,6.19,5,26-7.43,27.87-16.1,28.49-17.72.32-29.73-9.29c-9.29-7.43-11.79-14-6.82-22.3,7.44-12.38,19.9-23.71,28.5-27.25C406.35,74.11,413.37,74.52,418.53,81.34Z"/><path d="M413,86.91s3.51,3.31,0,8.26c-2.52,3.55-5.78,5.78-9.5,3.72-4.65-2.59-4.12-7.64-2.89-11.36S405.52,81.54,413,86.91Z"/><path class="cls-5" d="M382.81,73.29s2.89,3.71,1.24,5.36-5.37,4.55-8.26,1.65c-3.31-3.3-4.13-7.43-2.48-8.67S377.85,68.33,382.81,73.29Z"/><path class="cls-5" d="M442.68,104.67s2.48,3.71.83,5.78-7.43,1.65-9.09,1.24a4.66,4.66,0,0,1-3.3-5c.41-2.48,2.07-3.71,5-3.71A20.07,20.07,0,0,1,442.68,104.67Z"/><path class="cls-4" d="M475.3,77s4.36-3.66,8.26-3.3c4.55.41,6.61,1.65,7.44,3.71s1.23,7-1.24,9.91c-2.69,3.14-7,6.2-11.56,4.13s-3.83-7-4.13-9.49A6.06,6.06,0,0,1,475.3,77Z"/><path class="cls-4" d="M397.26,20s-.41-6.61-4.13-8.67-5.78-2.07-7.84-1.24-4.55,4.13-5,6.19a25.63,25.63,0,0,0-.41,5.37c0,1.65.41,7,2.06,7.43a11.14,11.14,0,0,0,8.26-.82C392.72,27,397.26,25,397.26,20Z"/><path d="M394.86,59.35c-4-1.44-7.25,1.7-8.19,3.28s-1.8,4.09.9,6.78,4.51,4,8.33,1.53S401.23,61.65,394.86,59.35Z"/><ellipse class="cls-6" cx="395.75" cy="65.73" rx="2.06" ry="1.85" transform="translate(26.95 223.6) rotate(-32.6)"/><path d="M443.41,84.67c-4-1.44-7.25,1.7-8.2,3.28s-1.79,4.09.91,6.78,4.5,4,8.33,1.53S449.78,87,443.41,84.67Z"/><ellipse class="cls-6" cx="444.09" cy="90.17" rx="2.06" ry="1.85" transform="translate(21.4 253.5) rotate(-32.6)"/><path class="cls-4" d="M221.82,87.72s-.16-4.61-2.49-6.77c-2.71-2.51-4.58-3.09-6.27-2.46s-4.91,3.06-5.3,6.12c-.44,3.32.07,7.59,3.78,9.21s6.32-1.51,8-2.66A4.93,4.93,0,0,0,221.82,87.72Z"/><path class="cls-4" d="M297.28,106.75s4.21-3.34,7.47-2.21,4.38,2.36,5,4a8.52,8.52,0,0,1-1,6.35,20.06,20.06,0,0,1-3,3.16c-1,.9-4.45,3.56-5.6,2.79a9,9,0,0,1-4-5.43C295.51,113.3,294.29,109.44,297.28,106.75Z"/><path class="cls-4" d="M242.47,126.23s-7.44,1.15-15.13,15.49-7.53,22.34-1.9,26.68,11.92,8.22,24.45,7.1c9.68-.87,14.36-4.21,14.71-12.11.53-11.8-2.84-25.15-7.1-31.44C254,126.81,249.06,123.92,242.47,126.23Z"/><path d="M243.75,132.55s-3.89.66-3.73,5.63c.11,3.55,1.32,6.54,4.79,6.82,4.34.34,6.26-3.34,7.09-6.43S251.23,132.25,243.75,132.55Z"/><path d="M227.24,116.15c-3.54-.12-5.32,3.2-5.67,4.7A4.22,4.22,0,0,0,224,126c2.83,1.44,4.6,2,7-.91S232.89,116.35,227.24,116.15Z"/><ellipse class="cls-6" cx="229.58" cy="120.99" rx="1.72" ry="1.55" transform="translate(-9.92 220.9) rotate(-50.43)"/><path d="M272.26,123.86c-3.54-.13-5.32,3.2-5.67,4.7a4.22,4.22,0,0,0,2.45,5.15c2.83,1.44,4.6,2,7-.91S277.91,124.06,272.26,123.86Z"/><ellipse class="cls-6" cx="274.21" cy="128.05" rx="1.72" ry="1.55" transform="translate(0.83 257.87) rotate(-50.43)"/></svg>