<?xml version="1.0" encoding="utf-8"?>
<!-- Generator: Adobe Illustrator 26.1.0, SVG Export Plug-In . SVG Version: 6.00 Build 0)  -->
<svg version="1.1" id="Layer_2_00000152258350664481025560000018056391717544274610_"
	 xmlns="http://www.w3.org/2000/svg" xmlns:xlink="http://www.w3.org/1999/xlink" x="0px" y="0px" viewBox="0 0 500 256.6"
	 style="enable-background:new 0 0 500 256.6;" xml:space="preserve">
<style type="text/css">
	.st0{fill:#A16044;}
	.st1{fill:#3E516D;}
	.st2{fill:#FDF4E2;}
	.st3{fill:#BB5232;}
	.st4{fill:#FFFFFF;}
	.st5{fill:#B6D9D0;}
</style>
<path class="st0" d="M25.2,98.7c3.9,10.1,9.9,43.3,20.4,89.8c10,44,9.4,65.2,9.3,67.3h111.5c-7.2-59.2,15.3-106.8,30.8-140.8
	c-31-57.6-69.2-78.9-71-80.7s0.6-11.1,0.6-14.9s-3.1-9.3-7.5-12.4s-7.9-3.4-14.9,0.6c-8.7,5-4.6,12.6-6.4,16.9s-16.9-3.3-40.7,12.2
	c-14,9.1-26,29.1-29.1,32.2s-12.4-3.1-18,0S1.2,79,6,87.5C13.4,101,22.7,92.2,25.2,98.7z"/>
<path class="st1" d="M445.8,255.8c-0.1-2.1-0.7-23.3,9.3-67.3c10.5-46.5,16.5-79.7,20.4-89.8c2.5-6.5,11.8,2.3,19.2-11.2
	c4.7-8.5,1.3-15.5-4.3-18.5s-14.9,3.1-18,0s-15.1-23.1-29.1-32.2c-23.7-15.5-38.8-7.8-40.7-12.2s2.3-12-6.4-16.9
	c-7-4-10.5-3.7-14.9-0.6s-7.4,8.7-7.4,12.4s2.5,13,0.6,14.9s-40,23.1-71,80.7c-18,31.8-10.6,102.6,10,140.8L445.8,255.8z"/>
<path class="st2" d="M247.5,17.1c0,0-4.6-7-9.9-6.6s-8.7,3.7-7.4,8.7s13.2,22.3,16.1,23.1s6.6-5,8.7-7.8c2.1-2.8,7.8-9.1,9.5-14
	c1.2-3.7-0.8-7.7-4.5-8.9c-1.2-0.4-2.5-0.4-3.7-0.2C252.8,12.3,249.7,14.3,247.5,17.1z"/>
<path class="st2" d="M82.2,81.3c0,0-6.8,6.2-5,26s7.4,27.9,16.1,28.5s17.7,0.3,29.7-9.3c9.3-7.4,11.8-14,6.8-22.3
	c-7.4-12.4-19.9-23.7-28.5-27.2C94.3,74.1,87.3,74.5,82.2,81.3z"/>
<path d="M87.7,86.9c0,0-3.5,3.3,0,8.3c2.5,3.6,5.8,5.8,9.5,3.7c4.7-2.6,4.1-7.6,2.9-11.4S95.2,81.5,87.7,86.9z"/>
<path class="st3" d="M117.9,73.3c0,0-2.9,3.7-1.2,5.4s5.4,4.6,8.3,1.7c3.3-3.3,4.1-7.4,2.5-8.7S122.8,68.3,117.9,73.3z"/>
<path class="st3" d="M58,104.7c0,0-2.5,3.7-0.8,5.8s7.4,1.7,9.1,1.2c2.2-0.6,3.6-2.8,3.3-5c-0.4-2.5-2.1-3.7-5-3.7
	C62.3,103.2,60.1,103.7,58,104.7z"/>
<path class="st2" d="M25.4,77c0,0-4.4-3.7-8.3-3.3c-4.5,0.4-6.6,1.7-7.4,3.7s-1.2,7,1.2,9.9c2.7,3.1,7,6.2,11.6,4.1s3.8-7,4.1-9.5
	C26.9,80.2,26.5,78.4,25.4,77z"/>
<path class="st2" d="M103.4,20c0,0,0.4-6.6,4.1-8.7s5.8-2.1,7.8-1.2s4.5,4.1,5,6.2c0.3,1.8,0.5,3.6,0.4,5.4c0,1.6-0.4,7-2.1,7.4
	c-2.8,0.8-5.7,0.5-8.3-0.8C108,27,103.4,25,103.4,20z"/>
<path d="M56.8,86.1c-3.4,2.6-2.5,7-1.7,8.7c1,2.4,3.7,3.7,6.2,2.9c3.7-0.8,5.8-1.7,5.8-6.2S62.1,82,56.8,86.1z"/>
<ellipse class="st4" cx="62.6" cy="88.8" rx="1.8" ry="2.1"/>
<path d="M104.2,58.8c-3.4,2.6-2.5,7-1.7,8.7s2.5,3.7,6.2,2.9s5.8-1.7,5.8-6.2S109.6,54.7,104.2,58.8z"/>
<ellipse class="st4" cx="109.2" cy="61.2" rx="1.8" ry="2.1"/>
<path class="st2" d="M418.5,81.3c0,0,6.8,6.2,5,26s-7.4,27.9-16.1,28.5s-17.7,0.3-29.7-9.3c-9.3-7.4-11.8-14-6.8-22.3
	c7.4-12.4,19.9-23.7,28.5-27.2C406.4,74.1,413.4,74.5,418.5,81.3z"/>
<path d="M413,86.9c0,0,3.5,3.3,0,8.3c-2.5,3.6-5.8,5.8-9.5,3.7c-4.6-2.6-4.1-7.6-2.9-11.4S405.5,81.5,413,86.9z"/>
<path class="st3" d="M382.8,73.3c0,0,2.9,3.7,1.2,5.4s-5.4,4.6-8.3,1.7c-3.3-3.3-4.1-7.4-2.5-8.7S377.9,68.3,382.8,73.3z"/>
<path class="st3" d="M442.7,104.7c0,0,2.5,3.7,0.8,5.8s-7.4,1.7-9.1,1.2c-2.2-0.6-3.6-2.8-3.3-5c0.4-2.5,2.1-3.7,5-3.7
	C438.4,103.2,440.6,103.7,442.7,104.7z"/>
<path class="st2" d="M475.3,77c0,0,4.4-3.7,8.3-3.3c4.5,0.4,6.6,1.7,7.4,3.7s1.2,7-1.2,9.9c-2.7,3.1-7,6.2-11.6,4.1s-3.8-7-4.1-9.5
	C473.7,80.2,474.2,78.4,475.3,77z"/>
<path class="st2" d="M397.3,20c0,0-0.4-6.6-4.1-8.7s-5.8-2.1-7.8-1.2s-4.5,4.1-5,6.2c-0.3,1.8-0.5,3.6-0.4,5.4c0,1.6,0.4,7,2.1,7.4
	c2.8,0.8,5.7,0.5,8.3-0.8C392.7,27,397.3,25,397.3,20z"/>
<path d="M394.9,59.3c-4-1.4-7.2,1.7-8.2,3.3c-0.9,1.6-1.8,4.1,0.9,6.8s4.5,4,8.3,1.5S401.2,61.7,394.9,59.3z"/>
<ellipse transform="matrix(0.8425 -0.5388 0.5388 0.8425 26.9243 223.5857)" class="st4" cx="395.8" cy="65.8" rx="2.1" ry="1.8"/>
<path d="M443.4,84.7c-4-1.4-7.2,1.7-8.2,3.3s-1.8,4.1,0.9,6.8s4.5,4,8.3,1.5S449.8,87,443.4,84.7z"/>
<ellipse transform="matrix(0.8425 -0.5388 0.5388 0.8425 21.37 253.4821)" class="st4" cx="444.1" cy="90.2" rx="2.1" ry="1.8"/>
<path class="st5" d="M165.8,255.4c0,0,124.7,0.4,153.2,0.4c-8.7-14-16.1-118.9-16.5-121s0-7,1.2-9.1s7.8-5,10.3-7.4s2.9-7.4,0-12.8
	s-4.5-4.9-8.7-5.4c-3.8-0.4-7.9,3.3-10.3,4.1s-5-0.8-9.9-5s-10.3-9.5-23.5-12.8c-13.8-3.5-32.6,0-34.7-0.4s-2.9-7.8-6.6-10.7
	s-8.7-1.7-12.4,0s-7.9,8.3-4.6,14.9c2.1,4.1,3.7,7.8,3.7,9.9s-5.4,7-8.7,12c-16.9,24-33.9,89.6-33.4,119.3
	C165.2,251.7,165.8,255.4,165.8,255.4z"/>
<path class="st2" d="M221.8,87.7c0,0-0.2-4.6-2.5-6.8c-2.7-2.5-4.6-3.1-6.3-2.5s-4.9,3.1-5.3,6.1c-0.4,3.3,0.1,7.6,3.8,9.2
	s6.3-1.5,8-2.7C220.8,90.4,221.6,89.1,221.8,87.7z"/>
<path class="st2" d="M297.3,106.8c0,0,4.2-3.3,7.5-2.2s4.4,2.4,5,4c0.5,2.2,0.1,4.4-1,6.3c-0.9,1.2-1.9,2.2-3,3.2
	c-1,0.9-4.5,3.6-5.6,2.8c-2-1.2-3.4-3.2-4-5.4C295.5,113.3,294.3,109.4,297.3,106.8z"/>
<path class="st2" d="M242.5,126.2c0,0-7.4,1.2-15.1,15.5s-7.5,22.3-1.9,26.7s11.9,8.2,24.4,7.1c9.7-0.9,14.4-4.2,14.7-12.1
	c0.5-11.8-2.8-25.1-7.1-31.4C254,126.8,249.1,123.9,242.5,126.2z"/>
<path d="M243.8,132.6c0,0-3.9,0.7-3.7,5.6c0.1,3.6,1.3,6.5,4.8,6.8c4.3,0.3,6.3-3.3,7.1-6.4S251.2,132.2,243.8,132.6z"/>
<path d="M227.2,116.2c-3.5-0.1-5.3,3.2-5.7,4.7c-0.6,2.1,0.4,4.3,2.4,5.2c2.8,1.4,4.6,2,7-0.9S232.9,116.3,227.2,116.2z"/>
<ellipse transform="matrix(0.637 -0.7708 0.7708 0.637 -9.9369 220.9015)" class="st4" cx="229.6" cy="121" rx="1.7" ry="1.6"/>
<path d="M272.3,123.9c-3.5-0.1-5.3,3.2-5.7,4.7c-0.6,2.1,0.4,4.3,2.5,5.1c2.8,1.4,4.6,2,7-0.9S277.9,124.1,272.3,123.9z"/>
<ellipse transform="matrix(0.637 -0.7708 0.7708 0.637 0.8145 257.8628)" class="st4" cx="274.2" cy="128.1" rx="1.7" ry="1.6"/>
</svg>
